<svg xmlns="http://www.w3.org/2000/svg" version="1.1" xmlns:xlink="http://www.w3.org/1999/xlink" width="1000" height="1000"><g clip-path="url(#SvgjsClipPath1108)"><rect width="1000" height="1000" fill="#000000"></rect><g transform="matrix(0.5833333333333334,0,0,0.5833333333333334,150,150)"><svg xmlns="http://www.w3.org/2000/svg" version="1.1" xmlns:xlink="http://www.w3.org/1999/xlink" width="1200" height="1200"><svg width="1200" height="1200" xmlns="http://www.w3.org/2000/svg" xmlns:xlink="http://www.w3.org/1999/xlink" version="1.1"><g transform="scale(12.000048828323683) translate(-0.5366156895955427, -0.0003980000813790241)">                        <g fill="#ffffff"><path xmlns="http://www.w3.org/2000/svg" d="M86.658,45.294c-2.596-11.405-7.506-21.703-16.644-29.677C59.895,6.787,48.228,2.422,34.426,6.596  C23.687,9.844,14.885,19.818,17.349,32.71c0.932,4.878,2.542,9.635,3.604,14.495c1.098,5.03,0.812,9.853-2.863,14.126  c-2.105,2.447-11.245,23.819-0.21,30.348c-0.77-18.918,7.032-23.655,14.369-24.814c3.087-0.488,6.223-0.744,9.189-1.824  c1.779-0.648,3.298-1.613,3.832-3.38c1.545-5.111,6.696-7.788,8.719-12.551c2.982,11.79,7.063,14.224,15.394,21.012  c15.322,12.482,3.194,27.591,6.438,23.033c2.864-4.026,3.986-8.487,3.386-13.398c-0.729-5.959-3.563-10.99-7.071-15.785  c-4.001-5.469-15.414-15.441-15.415-15.443c-0.343,0.244-0.624,0.057-0.891-0.139c-0.02-0.015,0.722-0.182,0.891,0.139  c0.004-0.003,0.007-0.002,0.011-0.005c-0.002,0.005-0.001,0.009-0.002,0.014c0.45,0.297,13.162,10.026,17.341,16.155  c6.288,9.22,9.093,18.902,3.26,29.398c-0.059,0.107,0.077,0.314,0.248,0.909c2.918-3.421,4.979-6.993,6.529-10.824  C89.238,71.478,89.662,58.492,86.658,45.294z M52.865,48.795c-3.021,3.313-6.23,6.32-10.432,8.229  c-4.773,2.168-7.544,1.262-10.008-3.14c-0.936-1.671-2.095-3.226-3.086-4.87c-1.214-2.015-1.825-4.165-1.223-6.496  c0.507-1.967-0.095-3.688-0.988-5.46c-2.406-4.773-1.276-11.291,2.677-15.563c2.506,12.21,12.09,18.375,22.302,23.931  C54.017,46.465,54.481,47.021,52.865,48.795z"></path></g>        </g></svg></svg></g></g><defs><clipPath id="SvgjsClipPath1108"><rect width="1000" height="1000" x="0" y="0" rx="350" ry="350"></rect></clipPath></defs></svg>